<svg version="1.1" id="Layer_1" xmlns="http://www.w3.org/2000/svg" xmlns:xlink="http://www.w3.org/1999/xlink" x="0px" y="0px"
	 width="100%" viewBox="0 0 500 500" enable-background="new 0 0 500 500" xml:space="preserve">
<path fill="#FFFFFF" opacity="1.000000" stroke="none" 
	d="
M453.000000,501.000000 
	C302.000031,501.000000 151.500076,501.000000 1.000081,501.000000 
	C1.000054,334.333405 1.000054,167.666824 1.000027,1.000170 
	C167.666550,1.000113 334.333099,1.000113 500.999756,1.000057 
	C500.999817,167.666519 500.999817,334.333038 500.999908,500.999756 
	C485.166656,501.000000 469.333344,501.000000 453.000000,501.000000 
M173.352936,245.593002 
	C174.535629,244.989578 175.897980,244.589813 176.862518,243.739075 
	C178.707199,242.112000 181.328171,240.403290 181.679779,238.388596 
	C181.908249,237.079483 178.963074,234.646942 176.974106,233.617111 
	C167.392044,228.655762 157.707901,223.878845 147.918274,219.342300 
	C146.055099,218.478912 143.192413,218.197647 141.404236,219.005463 
	C130.663025,223.857819 120.060745,229.026657 109.528481,234.321365 
	C108.184036,234.997223 106.636070,237.107681 106.762215,238.399231 
	C106.916496,239.978668 108.493942,241.707520 109.899017,242.804123 
	C111.697067,244.207489 113.936989,245.044693 115.927750,247.033844 
	C115.928795,250.189224 115.467606,253.437805 116.079109,256.470093 
	C116.556854,258.839111 117.806633,261.786499 119.675194,263.020996 
	C131.144730,270.598511 143.261887,275.423981 157.139725,269.354736 
	C157.981293,268.986694 159.068390,269.180115 159.879990,269.836273 
	C159.420914,273.198639 158.446243,276.592468 158.648712,279.914520 
	C158.848648,283.194977 161.501709,284.493652 164.800415,284.189331 
	C168.107895,283.884186 169.514664,282.132874 169.046951,278.859894 
	C168.797501,277.114319 168.735687,275.309113 168.228317,273.640533 
	C167.360855,270.787659 166.209717,268.021057 165.854858,265.029022 
	C171.150940,262.974915 173.501068,259.182831 172.925751,253.472137 
	C172.679535,251.027924 172.836823,248.543060 173.352936,245.593002 
M331.191864,267.242462 
	C331.766113,271.525635 333.341522,272.060181 339.684296,270.254181 
	C339.684296,256.621490 339.684296,243.051208 339.684296,229.555695 
	C336.711273,229.555695 334.142792,229.555695 330.974426,229.555695 
	C330.974426,235.319550 330.974426,240.719803 330.974426,246.019836 
	C324.930756,246.019836 319.508759,246.019836 313.455627,246.019836 
	C313.455627,240.275177 313.455627,234.877991 313.455627,229.460403 
	C310.216156,229.460403 307.621643,229.460403 304.782104,229.460403 
	C304.782104,243.336716 304.782104,256.932220 304.782104,270.683960 
	C307.725952,270.683960 310.439392,270.683960 313.778229,270.683960 
	C313.778229,264.985565 313.778229,259.602448 313.778229,254.170471 
	C319.835907,254.170471 325.257751,254.170471 331.191589,254.170471 
	C331.191589,258.388702 331.191589,262.343933 331.191864,267.242462 
M197.633911,261.435059 
	C197.633911,264.543274 197.633911,267.651459 197.633911,270.758240 
	C207.312302,270.758240 216.405670,270.758240 225.695374,270.758240 
	C225.695374,268.400085 225.695374,266.297882 225.695374,263.591278 
	C219.343704,263.591278 213.129547,263.591278 206.770050,263.591278 
	C206.770050,260.090332 206.770050,257.197968 206.770050,253.871155 
	C212.644150,253.871155 218.227982,253.871155 223.897522,253.871155 
	C223.897522,251.191650 223.897522,248.956390 223.897522,246.212372 
	C217.996796,246.212372 212.421143,246.212372 206.843704,246.212372 
	C206.843704,242.812149 206.843704,239.932251 206.843704,236.556854 
	C213.297073,236.556854 219.379745,236.556854 225.590546,236.556854 
	C225.590546,233.951157 225.590546,231.857773 225.590546,229.480560 
	C216.287537,229.480560 207.223877,229.480560 197.634247,229.480560 
	C197.634247,239.891144 197.634247,250.172867 197.633911,261.435059 
M255.689407,229.199036 
	C254.810120,230.223938 253.266403,231.191742 253.172562,232.284119 
	C252.855087,235.979218 253.051514,239.718475 253.051514,243.915695 
	C244.031021,236.036407 233.950821,239.398605 231.885635,250.486816 
	C231.293259,253.667282 231.533905,257.078339 231.853226,260.338593 
	C232.713196,269.118713 243.507706,276.418854 252.858444,267.132080 
	C253.049042,268.538574 253.204269,269.684052 253.345261,270.724426 
	C256.352356,270.724426 258.936920,270.724426 261.470337,270.724426 
	C261.470337,256.757355 261.470337,243.084946 261.470337,229.195770 
	C259.566345,229.195770 258.077515,229.195770 255.689407,229.199036 
M399.094330,239.442093 
	C396.757690,240.653534 394.421051,241.864975 391.683899,243.284058 
	C391.683899,238.561172 391.683899,234.129868 391.683899,229.613007 
	C388.631653,229.613007 385.953217,229.613007 383.373047,229.613007 
	C383.373047,243.597412 383.373047,257.146088 383.373047,270.989594 
	C386.887238,270.326813 391.282257,273.417755 392.478851,267.515594 
	C397.581055,271.964630 401.692200,272.705566 406.527954,270.110291 
	C412.380310,266.969421 414.992401,259.081543 413.099487,250.266006 
	C411.556061,243.077988 407.495483,239.715637 399.094330,239.442093 
M268.959778,257.349182 
	C268.765472,262.749786 269.409210,267.955505 275.059601,270.404053 
	C280.121826,272.597717 284.780396,271.367371 288.652069,266.841370 
	C289.129791,268.460175 289.501923,269.721252 289.787933,270.690491 
	C292.633209,270.690491 295.056488,270.690491 297.548553,270.690491 
	C297.548553,260.303680 297.548553,250.243225 297.548553,240.127899 
	C294.577850,240.127899 291.871826,240.127899 288.984283,240.127899 
	C288.984283,245.967270 288.967041,251.450424 288.989960,256.933380 
	C289.006989,260.997925 287.418060,263.882080 283.030640,263.921936 
	C278.552887,263.962646 277.746735,260.725433 277.757233,257.054779 
	C277.773315,251.444397 277.761444,245.833954 277.761444,240.106796 
	C274.586578,240.106796 271.875641,240.106796 268.959290,240.106796 
	C268.959290,245.757416 268.959290,251.072876 268.959778,257.349182 
M375.985687,265.368652 
	C375.985687,256.944946 375.985687,248.521255 375.985687,240.123749 
	C372.760132,240.123749 370.067902,240.123749 367.137848,240.123749 
	C367.137848,246.048553 367.109131,251.523911 367.147247,256.998810 
	C367.175812,261.100616 365.523773,263.963562 361.155945,263.901733 
	C356.774567,263.839691 355.937775,260.579254 355.954529,256.912964 
	C355.980103,251.313797 355.961273,245.714417 355.961273,240.103546 
	C352.736847,240.103546 350.038666,240.103546 347.149872,240.103546 
	C347.149872,247.171127 346.901520,253.820572 347.212738,260.443695 
	C347.602020,268.726959 354.400330,273.508881 361.617645,270.758453 
	C363.535645,270.027557 365.166199,268.542480 367.057190,267.320679 
	C367.831696,273.663330 372.349915,270.208923 375.709290,271.021271 
	C375.815216,269.223755 375.900421,267.777679 375.985687,265.368652 
z"/>
<path fill="#3F3381" opacity="1.000000" stroke="none" 
	d="
M165.177704,265.218201 
	C166.209717,268.021057 167.360855,270.787659 168.228317,273.640533 
	C168.735687,275.309113 168.797501,277.114319 169.046951,278.859894 
	C169.514664,282.132874 168.107895,283.884186 164.800415,284.189331 
	C161.501709,284.493652 158.848648,283.194977 158.648712,279.914520 
	C158.446243,276.592468 159.420914,273.198639 160.317261,269.289948 
	C161.545334,267.829285 162.974945,266.945099 163.019714,265.995575 
	C163.250763,261.095978 163.126953,256.179688 163.126953,250.351517 
	C158.061569,252.710159 153.772247,254.442398 149.749496,256.658508 
	C146.063782,258.688995 142.911148,258.776093 139.038528,256.776489 
	C131.524643,252.896790 123.688889,249.640472 115.986496,246.125870 
	C113.936989,245.044693 111.697067,244.207489 109.899017,242.804123 
	C108.493942,241.707520 106.916496,239.978668 106.762215,238.399231 
	C106.636070,237.107681 108.184036,234.997223 109.528481,234.321365 
	C120.060745,229.026657 130.663025,223.857819 141.404236,219.005463 
	C143.192413,218.197647 146.055099,218.478912 147.918274,219.342300 
	C157.707901,223.878845 167.392044,228.655762 176.974106,233.617111 
	C178.963074,234.646942 181.908249,237.079483 181.679779,238.388596 
	C181.328171,240.403290 178.707199,242.112000 176.862518,243.739075 
	C175.897980,244.589813 174.535629,244.989578 172.732910,245.868469 
	C166.359665,247.431961 163.940460,250.829773 164.918549,256.801819 
	C165.368286,259.547791 165.113174,262.409149 165.177704,265.218201 
z"/>
<path fill="#FE496B" opacity="1.000000" stroke="none" 
	d="
M331.191711,266.770813 
	C331.191589,262.343933 331.191589,258.388702 331.191589,254.170471 
	C325.257751,254.170471 319.835907,254.170471 313.778229,254.170471 
	C313.778229,259.602448 313.778229,264.985565 313.778229,270.683960 
	C310.439392,270.683960 307.725952,270.683960 304.782104,270.683960 
	C304.782104,256.932220 304.782104,243.336716 304.782104,229.460403 
	C307.621643,229.460403 310.216156,229.460403 313.455627,229.460403 
	C313.455627,234.877991 313.455627,240.275177 313.455627,246.019836 
	C319.508759,246.019836 324.930756,246.019836 330.974426,246.019836 
	C330.974426,240.719803 330.974426,235.319550 330.974426,229.555695 
	C334.142792,229.555695 336.711273,229.555695 339.684296,229.555695 
	C339.684296,243.051208 339.684296,256.621490 339.684296,270.254181 
	C333.341522,272.060181 331.766113,271.525635 331.191711,266.770813 
z"/>
<path fill="#3F3381" opacity="1.000000" stroke="none" 
	d="
M197.634079,260.944824 
	C197.634247,250.172867 197.634247,239.891144 197.634247,229.480560 
	C207.223877,229.480560 216.287537,229.480560 225.590546,229.480560 
	C225.590546,231.857773 225.590546,233.951157 225.590546,236.556854 
	C219.379745,236.556854 213.297073,236.556854 206.843704,236.556854 
	C206.843704,239.932251 206.843704,242.812149 206.843704,246.212372 
	C212.421143,246.212372 217.996796,246.212372 223.897522,246.212372 
	C223.897522,248.956390 223.897522,251.191650 223.897522,253.871155 
	C218.227982,253.871155 212.644150,253.871155 206.770050,253.871155 
	C206.770050,257.197968 206.770050,260.090332 206.770050,263.591278 
	C213.129547,263.591278 219.343704,263.591278 225.695374,263.591278 
	C225.695374,266.297882 225.695374,268.400085 225.695374,270.758240 
	C216.405670,270.758240 207.312302,270.758240 197.633911,270.758240 
	C197.633911,267.651459 197.633911,264.543274 197.634079,260.944824 
z"/>
<path fill="#3F3381" opacity="1.000000" stroke="none" 
	d="
M256.139038,229.197403 
	C258.077515,229.195770 259.566345,229.195770 261.470337,229.195770 
	C261.470337,243.084946 261.470337,256.757355 261.470337,270.724426 
	C258.936920,270.724426 256.352356,270.724426 253.345261,270.724426 
	C253.204269,269.684052 253.049042,268.538574 252.858444,267.132080 
	C243.507706,276.418854 232.713196,269.118713 231.853226,260.338593 
	C231.533905,257.078339 231.293259,253.667282 231.885635,250.486816 
	C233.950821,239.398605 244.031021,236.036407 253.051514,243.915695 
	C253.051514,239.718475 252.855087,235.979218 253.172562,232.284119 
	C253.266403,231.191742 254.810120,230.223938 256.139038,229.197403 
M244.427521,264.054047 
	C248.876862,265.484741 251.460663,263.384521 252.748077,259.383179 
	C254.475845,254.013260 252.634827,248.146210 248.863281,246.727142 
	C245.264618,245.373123 242.723419,246.894989 241.166122,250.140121 
	C238.998108,254.657867 240.027008,259.778412 244.427521,264.054047 
z"/>
<path fill="#FE496B" opacity="1.000000" stroke="none" 
	d="
M399.480530,239.375336 
	C407.495483,239.715637 411.556061,243.077988 413.099487,250.266006 
	C414.992401,259.081543 412.380310,266.969421 406.527954,270.110291 
	C401.692200,272.705566 397.581055,271.964630 392.478851,267.515594 
	C391.282257,273.417755 386.887238,270.326813 383.373047,270.989594 
	C383.373047,257.146088 383.373047,243.597412 383.373047,229.613007 
	C385.953217,229.613007 388.631653,229.613007 391.683899,229.613007 
	C391.683899,234.129868 391.683899,238.561172 391.683899,243.284058 
	C394.421051,241.864975 396.757690,240.653534 399.480530,239.375336 
M397.627411,246.223694 
	C391.667480,248.636093 389.508759,258.137238 393.980621,262.644409 
	C396.639984,265.324799 399.702850,265.325012 402.340485,262.760040 
	C407.301758,257.935486 404.955719,248.448151 397.627411,246.223694 
z"/>
<path fill="#FE496B" opacity="1.000000" stroke="none" 
	d="
M115.957123,246.579865 
	C123.688889,249.640472 131.524643,252.896790 139.038528,256.776489 
	C142.911148,258.776093 146.063782,258.688995 149.749496,256.658508 
	C153.772247,254.442398 158.061569,252.710159 163.126953,250.351517 
	C163.126953,256.179688 163.250763,261.095978 163.019714,265.995575 
	C162.974945,266.945099 161.545334,267.829285 160.397888,268.927979 
	C159.068390,269.180115 157.981293,268.986694 157.139725,269.354736 
	C143.261887,275.423981 131.144730,270.598511 119.675194,263.020996 
	C117.806633,261.786499 116.556854,258.839111 116.079109,256.470093 
	C115.467606,253.437805 115.928795,250.189224 115.957123,246.579865 
z"/>
<path fill="#3F3381" opacity="1.000000" stroke="none" 
	d="
M268.959534,256.868774 
	C268.959290,251.072876 268.959290,245.757416 268.959290,240.106796 
	C271.875641,240.106796 274.586578,240.106796 277.761444,240.106796 
	C277.761444,245.833954 277.773315,251.444397 277.757233,257.054779 
	C277.746735,260.725433 278.552887,263.962646 283.030640,263.921936 
	C287.418060,263.882080 289.006989,260.997925 288.989960,256.933380 
	C288.967041,251.450424 288.984283,245.967270 288.984283,240.127899 
	C291.871826,240.127899 294.577850,240.127899 297.548553,240.127899 
	C297.548553,250.243225 297.548553,260.303680 297.548553,270.690491 
	C295.056488,270.690491 292.633209,270.690491 289.787933,270.690491 
	C289.501923,269.721252 289.129791,268.460175 288.652069,266.841370 
	C284.780396,271.367371 280.121826,272.597717 275.059601,270.404053 
	C269.409210,267.955505 268.765472,262.749786 268.959534,256.868774 
z"/>
<path fill="#FE496B" opacity="1.000000" stroke="none" 
	d="
M375.985657,265.850128 
	C375.900421,267.777679 375.815216,269.223755 375.709290,271.021271 
	C372.349915,270.208923 367.831696,273.663330 367.057190,267.320679 
	C365.166199,268.542480 363.535645,270.027557 361.617645,270.758453 
	C354.400330,273.508881 347.602020,268.726959 347.212738,260.443695 
	C346.901520,253.820572 347.149872,247.171127 347.149872,240.103546 
	C350.038666,240.103546 352.736847,240.103546 355.961273,240.103546 
	C355.961273,245.714417 355.980103,251.313797 355.954529,256.912964 
	C355.937775,260.579254 356.774567,263.839691 361.155945,263.901733 
	C365.523773,263.963562 367.175812,261.100616 367.147247,256.998810 
	C367.109131,251.523911 367.137848,246.048553 367.137848,240.123749 
	C370.067902,240.123749 372.760132,240.123749 375.985687,240.123749 
	C375.985687,248.521255 375.985687,256.944946 375.985657,265.850128 
z"/>
<path fill="#FE496B" opacity="1.000000" stroke="none" 
	d="
M165.516281,265.123596 
	C165.113174,262.409149 165.368286,259.547791 164.918549,256.801819 
	C163.940460,250.829773 166.359665,247.431961 172.461807,246.110306 
	C172.836823,248.543060 172.679535,251.027924 172.925751,253.472137 
	C173.501068,259.182831 171.150940,262.974915 165.516281,265.123596 
z"/>
<path fill="#FFFFFF" opacity="1.000000" stroke="none" 
	d="
M244.081375,263.918152 
	C240.027008,259.778412 238.998108,254.657867 241.166122,250.140121 
	C242.723419,246.894989 245.264618,245.373123 248.863281,246.727142 
	C252.634827,248.146210 254.475845,254.013260 252.748077,259.383179 
	C251.460663,263.384521 248.876862,265.484741 244.081375,263.918152 
z"/>
<path fill="#FFFFFF" opacity="1.000000" stroke="none" 
	d="
M398.010071,246.214874 
	C404.955719,248.448151 407.301758,257.935486 402.340485,262.760040 
	C399.702850,265.325012 396.639984,265.324799 393.980621,262.644409 
	C389.508759,258.137238 391.667480,248.636093 398.010071,246.214874 
z"/>
</svg>